# xmcd CD database file
#
# Track frame offsets:
#	150
#	16913
#	36770
#	50880
#	75874
#	96387
#	115672
#	134704
#	155039
#	175233
#	193327
#	213474
#	234109
#	269622
#
# Disc length: 3965 seconds
#
# Revision: 0
# Processed by: cddbd v1.5.2PL0 Copyright (c) Steve Scherf et al.
# Submitted via: CDex 1.51
#
DISCID=c50f7b0e
DTITLE=Gary Burton - New Vibe Man In Town
DYEAR=1961
DGENRE=Jazz
TTITLE0=Joy Spring
TTITLE1=Over The Rainbow
TTITLE2=Like Someone In Love
TTITLE3=Minor Blues
TTITLE4=Our Waltz
TTITLE5=So Many Things
TTITLE6=Sir John
TTITLE7=You Stepped Out Of A Dream
TTITLE8=All The Things You Are (Jazz Winds From A New Direction - 1960)
TTITLE9=Three-Four, The Blues
TTITLE10=Move
TTITLE11=Always
TTITLE12=Riot-Chorus
TTITLE13=Relaxing
EXTD=YEAR: 1961
EXTT0=
EXTT1=
EXTT2=
EXTT3=
EXTT4=
EXTT5=
EXTT6=
EXTT7=
EXTT8=
EXTT9=
EXTT10=
EXTT11=
EXTT12=
EXTT13=
PLAYORDER=
